<svg width="147" height="50" viewBox="0 0 147 50" fill="none" xmlns="http://www.w3.org/2000/svg">
<path d="M35.2182 0.957549C35.9176 0.957549 36.48 1.52749 36.48 2.2287V25.1474C36.48 27.5204 35.1941 29.6378 33.1437 30.6603C32.9996 30.7501 32.8179 30.8261 32.6534 30.8986C31.947 31.1922 31.2029 31.32 30.4794 31.32C29.5536 31.32 28.6312 31.1024 27.798 30.6637C27.2014 30.3528 26.6562 29.9522 26.1659 29.4409L8.22591 10.315C7.87273 9.93849 7.24525 10.1906 7.24525 10.7088V29.3546C7.24525 30.0592 6.67949 30.6257 5.98342 30.6257H1.26183C0.562336 30.6257 0 30.0558 0 29.3546V6.17685C0 3.62074 1.50529 1.35824 3.82322 0.425601C6.06915 -0.486309 8.6271 0.0974531 10.3107 1.88673L28.2507 21.0127C28.6038 21.3892 29.2313 21.137 29.2313 20.6189V2.2287C29.2313 1.52404 29.7971 0.957549 30.4931 0.957549H35.2182Z" fill="#B185DC"/>
<path d="M72.7679 13.2856V29.3718C72.7679 30.0834 72.1953 30.6603 71.4889 30.6603H66.7982C66.0918 30.6603 65.5192 30.0834 65.5192 29.3718V13.1302C65.5192 11.0058 64.2162 8.98167 62.176 8.4359C60.1495 7.89359 58.0648 8.79514 57.0738 10.543L45.7379 30.0247C45.5082 30.4185 45.0898 30.6603 44.6338 30.6603H39.1887C38.2012 30.6603 37.584 29.5791 38.0846 28.719L50.8024 6.85043C53.5866 2.04217 59.5118 -0.337777 65.0906 1.70711C69.8224 3.43767 72.7679 8.21829 72.7679 13.2856Z" fill="#B185DC"/>
<path d="M136.669 30.6603H131.189C130.74 30.6603 130.329 30.4219 130.099 30.0316L118.739 10.5395C117.501 8.40827 114.683 7.53436 112.361 9.00585C111.004 9.86595 110.294 11.4722 110.294 13.0887V29.3857C110.294 30.0869 109.728 30.6568 109.032 30.6568H103.765C103.299 30.6568 102.874 30.4012 102.654 29.9867L92.2098 10.429C90.9719 8.26665 87.6151 7.32365 85.256 9.5447C84.2822 10.4601 83.8364 11.8141 83.8364 13.1544V29.3857C83.8364 30.0869 83.2707 30.6568 82.5746 30.6568H77.8496C77.1535 30.6568 76.5878 30.0869 76.5878 29.3857V13.2614C76.5878 8.64316 79.0085 4.21486 83.1335 2.20106C88.9832 -0.655567 95.5564 1.70711 98.5327 6.85388L102.301 13.9281C102.5 14.3011 103.062 14.1768 103.083 13.7554C103.378 7.74161 105.442 4.22868 109.591 2.20452C115.444 -0.648658 122.017 1.71056 124.993 6.85388L137.759 28.7432C138.253 29.5929 137.646 30.6603 136.669 30.6603Z" fill="#B185DC"/>
<path d="M147 3.27186V29.3857C147 30.0903 146.434 30.6603 145.735 30.6603H141.017C140.317 30.6603 139.751 30.0903 139.751 29.3857V3.27186C139.751 2.56721 140.317 1.99726 141.017 1.99726H145.735C146.434 1.99726 147 2.56721 147 3.27186Z" fill="#B185DC"/>
<path d="M103.933 47.5417C103.099 47.5417 102.396 47.2287 101.824 46.6028C101.26 45.9769 100.978 45.2193 100.978 44.3298C100.978 43.4404 101.26 42.6827 101.824 42.0568C102.396 41.4309 103.099 41.118 103.933 41.118C104.35 41.118 104.734 41.2127 105.086 41.4021C105.437 41.5833 105.707 41.8056 105.895 42.0692V38.1532H107.244V47.4182H105.895V46.5905C105.707 46.854 105.437 47.0805 105.086 47.2699C104.734 47.4511 104.35 47.5417 103.933 47.5417ZM102.866 45.7381C103.209 46.1169 103.647 46.3064 104.178 46.3064C104.71 46.3064 105.147 46.1169 105.49 45.7381C105.834 45.3593 106.005 44.8898 106.005 44.3298C106.005 43.7698 105.834 43.3004 105.49 42.9216C105.147 42.5427 104.71 42.3533 104.178 42.3533C103.647 42.3533 103.209 42.5427 102.866 42.9216C102.523 43.3004 102.351 43.7698 102.351 44.3298C102.351 44.8898 102.523 45.3593 102.866 45.7381Z" fill="#B185DC"/>
<path d="M111.781 47.5417C110.866 47.5417 110.114 47.2411 109.525 46.6399C108.936 46.0305 108.642 45.2604 108.642 44.3298C108.642 43.3992 108.932 42.6333 109.513 42.0321C110.093 41.4227 110.854 41.118 111.794 41.118C112.742 41.118 113.506 41.4515 114.087 42.1186C114.667 42.7774 114.925 43.6257 114.859 44.6634H109.979C109.995 45.141 110.175 45.5405 110.518 45.8616C110.862 46.1828 111.299 46.3434 111.83 46.3434C112.583 46.3434 113.098 46.0552 113.376 45.4787H114.786C114.598 46.0799 114.238 46.574 113.707 46.9611C113.175 47.3482 112.534 47.5417 111.781 47.5417ZM111.757 42.2545C111.315 42.2545 110.935 42.3821 110.616 42.6374C110.306 42.8845 110.106 43.2386 110.016 43.6998H113.412C113.314 43.2221 113.114 42.8639 112.812 42.6251C112.509 42.378 112.157 42.2545 111.757 42.2545Z" fill="#B185DC"/>
<path d="M116.245 47.4182V38.1532H117.593V47.4182H116.245Z" fill="#B185DC"/>
<path d="M120.081 39.895C119.835 39.895 119.623 39.8085 119.443 39.6356C119.263 39.4544 119.173 39.2362 119.173 38.9809C119.173 38.7338 119.263 38.5238 119.443 38.3508C119.623 38.1697 119.835 38.0791 120.081 38.0791C120.334 38.0791 120.547 38.1697 120.718 38.3508C120.89 38.5238 120.976 38.7338 120.976 38.9809C120.976 39.2362 120.89 39.4544 120.718 39.6356C120.547 39.8085 120.334 39.895 120.081 39.895ZM119.406 47.4182V41.2415H120.755V47.4182H119.406Z" fill="#B185DC"/>
<path d="M124.481 47.4182L121.709 41.2415H123.205L125.069 45.5775L126.945 41.2415H128.454L125.67 47.4182H124.481Z" fill="#B185DC"/>
<path d="M131.948 47.5417C131.032 47.5417 130.28 47.2411 129.692 46.6399C129.103 46.0305 128.809 45.2604 128.809 44.3298C128.809 43.3992 129.099 42.6333 129.679 42.0321C130.26 41.4227 131.02 41.118 131.96 41.118C132.909 41.118 133.673 41.4515 134.253 42.1186C134.834 42.7774 135.091 43.6257 135.026 44.6634H130.145C130.162 45.141 130.342 45.5405 130.685 45.8616C131.028 46.1828 131.466 46.3434 131.997 46.3434C132.749 46.3434 133.264 46.0552 133.542 45.4787H134.952C134.764 46.0799 134.405 46.574 133.873 46.9611C133.342 47.3482 132.7 47.5417 131.948 47.5417ZM131.923 42.2545C131.482 42.2545 131.102 42.3821 130.783 42.6374C130.472 42.8845 130.272 43.2386 130.182 43.6998H133.579C133.481 43.2221 133.28 42.8639 132.978 42.6251C132.676 42.378 132.324 42.2545 131.923 42.2545Z" fill="#B185DC"/>
<path d="M136.411 47.4182V41.2415H137.76V42.341C137.874 41.9951 138.083 41.715 138.385 41.5009C138.696 41.2868 139.027 41.1797 139.379 41.1797C139.591 41.1797 139.767 41.1962 139.906 41.2291V42.6251C139.71 42.551 139.485 42.5139 139.232 42.5139C138.823 42.5139 138.475 42.6827 138.189 43.0204C137.903 43.3498 137.76 43.811 137.76 44.404V47.4182H136.411Z" fill="#B185DC"/>
<path d="M143.032 50H141.548L142.86 47.0846L140.223 41.2415H141.707L143.583 45.6146L145.472 41.2415H146.968L143.032 50Z" fill="#B185DC"/>
</svg>
