<svg width="22" height="14" viewBox="0 0 22 14" fill="none" xmlns="http://www.w3.org/2000/svg">
<path d="M11.896 13.0861C5.04178 13.0861 1.13226 8.38813 0.96936 0.57074H4.40272C4.51549 6.30851 7.04666 8.73891 9.05155 9.24002V0.57074H12.2844V5.51925C14.2642 5.30627 16.3443 3.05126 17.046 0.57074H20.2789C20.0144 1.85721 19.4875 3.07528 18.7306 4.14878C17.9738 5.22229 17.0035 6.12812 15.8806 6.80962C17.1342 7.43233 18.2413 8.3137 19.1289 9.39562C20.0168 10.4776 20.6648 11.7353 21.0307 13.0861H17.4721C17.1436 11.9129 16.4762 10.8626 15.5534 10.0671C14.6306 9.27144 13.4934 8.76586 12.2844 8.61363V13.0861H11.896Z" fill="white"/>
</svg>
